<svg xmlns="http://www.w3.org/2000/svg" width="1900" height="1480" viewBox="0 0 1900 1480">
<defs>
  <marker id="arrow" viewBox="0 0 10 10" refX="8.5" refY="5" markerWidth="7" markerHeight="7" orient="auto-start-reverse">
    <path d="M 0 0 L 10 5 L 0 10 z" fill="#475569"/>
  </marker>
  <filter id="shadow" x="-20%" y="-20%" width="140%" height="140%">
    <feDropShadow dx="0" dy="4" stdDeviation="4" flood-color="#000000" flood-opacity="0.14"/>
  </filter>
  <style>
    .bg { fill: #f8fafc; }
    .title { font-family: "Noto Sans CJK KR", "Apple SD Gothic Neo", "Malgun Gothic", Arial, sans-serif; font-weight: 700; fill: #111827; }
    .sub { font-family: "Noto Sans CJK KR", "Apple SD Gothic Neo", "Malgun Gothic", Arial, sans-serif; fill: #475569; }
    .label { font-family: "Noto Sans CJK KR", "Apple SD Gothic Neo", "Malgun Gothic", Arial, sans-serif; font-size: 12px; fill: #334155; font-weight: 700; }
    .section { font-family: "Noto Sans CJK KR", "Apple SD Gothic Neo", "Malgun Gothic", Arial, sans-serif; font-size: 20px; font-weight: 800; fill: #1e293b; }
    .caption { font-family: "Noto Sans CJK KR", "Apple SD Gothic Neo", "Malgun Gothic", Arial, sans-serif; font-size: 14px; fill: #475569; }
  </style>
</defs>
<rect width="100%" height="100%" class="bg"/>
<text x="70" y="58" class="title" font-size="34">🌈 레인보우 브릿지 — 펫로스 애프터케어 내부 파이프라인</text>
<text x="72" y="88" class="caption">FastAPI · React · SQLite/JWT · MongoDB · Gemini API · Google Cloud TTS · LivePortrait · FFmpeg · PERSO API</text>

<rect x="45" y="105" width="1810" height="125" rx="24" fill="#eff6ff" stroke="#e2e8f0" stroke-width="1"/>
<text x="65" y="137" class="section">1. 인증 / 프로필</text>
<rect x="45" y="260" width="1810" height="300" rx="24" fill="#fff7ed" stroke="#e2e8f0" stroke-width="1"/>
<text x="65" y="292" class="section">2. 감정 체크인 / 위기감지 / 추모 메시지</text>
<rect x="45" y="600" width="1810" height="145" rx="24" fill="#f0fdf4" stroke="#e2e8f0" stroke-width="1"/>
<text x="65" y="632" class="section">3. TTS 낭독</text>
<rect x="45" y="780" width="1810" height="535" rx="24" fill="#fdf4ff" stroke="#e2e8f0" stroke-width="1"/>
<text x="65" y="812" class="section">4. 멀티모달 추모 영상</text>
<rect x="45" y="1320" width="1285" height="125" rx="24" fill="#f1f5f9" stroke="#e2e8f0" stroke-width="1"/>
<text x="65" y="1352" class="section">5. 타임라인 / 리포트</text>
<rect x="70" y="125" width="210" height="82" rx="16" fill="#ffffff" stroke="#2563eb" stroke-width="2"/>
<text x="175.0" y="156.0" text-anchor="middle" dominant-baseline="middle" class="title" font-size="16">사용자</text>
<text x="175.0" y="175.0" text-anchor="middle" dominant-baseline="middle" class="sub" font-size="12">React Frontend</text>
<rect x="350" y="125" width="230" height="82" rx="16" fill="#dbeafe" stroke="#2563eb" stroke-width="2"/>
<text x="465.0" y="156.0" text-anchor="middle" dominant-baseline="middle" class="title" font-size="16">로그인 / 회원가입</text>
<text x="465.0" y="175.0" text-anchor="middle" dominant-baseline="middle" class="sub" font-size="12">JWT 발급</text>
<rect x="650" y="125" width="230" height="82" rx="26" fill="#e0f2fe" stroke="#0284c7" stroke-width="2"/>
<text x="765.0" y="156.0" text-anchor="middle" dominant-baseline="middle" class="title" font-size="16">SQLite</text>
<text x="765.0" y="175.0" text-anchor="middle" dominant-baseline="middle" class="sub" font-size="12">users 인증 DB</text>
<rect x="950" y="125" width="230" height="82" rx="16" fill="#dbeafe" stroke="#2563eb" stroke-width="2"/>
<text x="1065.0" y="156.0" text-anchor="middle" dominant-baseline="middle" class="title" font-size="16">Bearer Token</text>
<text x="1065.0" y="175.0" text-anchor="middle" dominant-baseline="middle" class="sub" font-size="12">API 요청 인증</text>
<rect x="1260" y="125" width="250" height="82" rx="16" fill="#dbeafe" stroke="#2563eb" stroke-width="2"/>
<text x="1385.0" y="156.0" text-anchor="middle" dominant-baseline="middle" class="title" font-size="16">반려동물 프로필</text>
<text x="1385.0" y="175.0" text-anchor="middle" dominant-baseline="middle" class="sub" font-size="12">FastAPI /pets</text>
<rect x="1600" y="125" width="230" height="82" rx="26" fill="#e0f2fe" stroke="#0284c7" stroke-width="2"/>
<text x="1715.0" y="156.0" text-anchor="middle" dominant-baseline="middle" class="title" font-size="16">MongoDB</text>
<text x="1715.0" y="175.0" text-anchor="middle" dominant-baseline="middle" class="sub" font-size="12">pets 저장</text>
<rect x="350" y="300" width="230" height="82" rx="16" fill="#ffedd5" stroke="#f97316" stroke-width="2"/>
<text x="465.0" y="331.0" text-anchor="middle" dominant-baseline="middle" class="title" font-size="16">감정 체크인</text>
<text x="465.0" y="350.0" text-anchor="middle" dominant-baseline="middle" class="sub" font-size="12">score / note 저장</text>
<rect x="660" y="290" width="260" height="100" rx="16" fill="#fed7aa" stroke="#f97316" stroke-width="2"/>
<text x="790.0" y="330.0" text-anchor="middle" dominant-baseline="middle" class="title" font-size="16">위기감지</text>
<text x="790.0" y="349.0" text-anchor="middle" dominant-baseline="middle" class="sub" font-size="12">L0 규칙 + L1 Gemini</text>
<polygon points="1105.0,282 1200,341.0 1105.0,400 1010,341.0" fill="#fff7ed" stroke="#f97316" stroke-width="2"/>
<text x="1105.0" y="332.0" text-anchor="middle" dominant-baseline="middle" class="title" font-size="14">risk_level</text>
<text x="1105.0" y="349.0" text-anchor="middle" dominant-baseline="middle" class="sub" font-size="11">2 이상?</text>
<rect x="1280" y="285" width="250" height="104" rx="16" fill="#fee2e2" stroke="#dc2626" stroke-width="2"/>
<text x="1405.0" y="327.0" text-anchor="middle" dominant-baseline="middle" class="title" font-size="16">1393 안내</text>
<text x="1405.0" y="346.0" text-anchor="middle" dominant-baseline="middle" class="sub" font-size="12">위기 라우팅 / 생성 차단</text>
<rect x="1280" y="440" width="250" height="92" rx="16" fill="#ffedd5" stroke="#f97316" stroke-width="2"/>
<text x="1405.0" y="476.0" text-anchor="middle" dominant-baseline="middle" class="title" font-size="16">추모 메시지 API</text>
<text x="1405.0" y="495.0" text-anchor="middle" dominant-baseline="middle" class="sub" font-size="12">FastAPI /messages</text>
<rect x="980" y="455" width="230" height="82" rx="16" fill="#fef3c7" stroke="#d97706" stroke-width="2"/>
<text x="1095.0" y="486.0" text-anchor="middle" dominant-baseline="middle" class="title" font-size="16">Gemini API</text>
<text x="1095.0" y="505.0" text-anchor="middle" dominant-baseline="middle" class="sub" font-size="12">기억 기반 추모 메시지</text>
<rect x="660" y="455" width="260" height="82" rx="16" fill="#fef3c7" stroke="#d97706" stroke-width="2"/>
<text x="790.0" y="486.0" text-anchor="middle" dominant-baseline="middle" class="title" font-size="16">윤리 가드레일</text>
<text x="790.0" y="505.0" text-anchor="middle" dominant-baseline="middle" class="sub" font-size="12">1인칭·부활 표현 차단</text>
<rect x="350" y="455" width="230" height="82" rx="26" fill="#e0f2fe" stroke="#0284c7" stroke-width="2"/>
<text x="465.0" y="486.0" text-anchor="middle" dominant-baseline="middle" class="title" font-size="16">MongoDB</text>
<text x="465.0" y="505.0" text-anchor="middle" dominant-baseline="middle" class="sub" font-size="12">messages 저장</text>
<rect x="350" y="635" width="230" height="82" rx="16" fill="#dcfce7" stroke="#16a34a" stroke-width="2"/>
<text x="465.0" y="666.0" text-anchor="middle" dominant-baseline="middle" class="title" font-size="16">TTS API</text>
<text x="465.0" y="685.0" text-anchor="middle" dominant-baseline="middle" class="sub" font-size="12">FastAPI /tts</text>
<rect x="660" y="635" width="260" height="82" rx="16" fill="#bbf7d0" stroke="#16a34a" stroke-width="2"/>
<text x="790.0" y="666.0" text-anchor="middle" dominant-baseline="middle" class="title" font-size="16">Google Cloud TTS</text>
<text x="790.0" y="685.0" text-anchor="middle" dominant-baseline="middle" class="sub" font-size="12">보호자 대상 낭독</text>
<rect x="980" y="635" width="230" height="82" rx="16" fill="#dcfce7" stroke="#16a34a" stroke-width="2"/>
<text x="1095.0" y="666.0" text-anchor="middle" dominant-baseline="middle" class="title" font-size="16">mp3 생성</text>
<text x="1095.0" y="685.0" text-anchor="middle" dominant-baseline="middle" class="sub" font-size="12">audio_url 반환</text>
<rect x="1280" y="635" width="250" height="82" rx="26" fill="#ecfdf5" stroke="#059669" stroke-width="2"/>
<text x="1405.0" y="666.0" text-anchor="middle" dominant-baseline="middle" class="title" font-size="16">File Storage</text>
<text x="1405.0" y="685.0" text-anchor="middle" dominant-baseline="middle" class="sub" font-size="12">uploads/tts/*.mp3</text>
<rect x="350" y="820" width="230" height="82" rx="16" fill="#fae8ff" stroke="#c026d3" stroke-width="2"/>
<text x="465.0" y="851.0" text-anchor="middle" dominant-baseline="middle" class="title" font-size="16">사진 업로드</text>
<text x="465.0" y="870.0" text-anchor="middle" dominant-baseline="middle" class="sub" font-size="12">image 저장</text>
<rect x="660" y="820" width="260" height="82" rx="16" fill="#f5d0fe" stroke="#c026d3" stroke-width="2"/>
<text x="790.0" y="851.0" text-anchor="middle" dominant-baseline="middle" class="title" font-size="16">LivePortrait</text>
<text x="790.0" y="870.0" text-anchor="middle" dominant-baseline="middle" class="sub" font-size="12">무음 추모 영상</text>
<rect x="980" y="820" width="230" height="82" rx="16" fill="#fae8ff" stroke="#c026d3" stroke-width="2"/>
<text x="1095.0" y="851.0" text-anchor="middle" dominant-baseline="middle" class="title" font-size="16">silent MP4</text>
<text x="1095.0" y="870.0" text-anchor="middle" dominant-baseline="middle" class="sub" font-size="12">무음 영상</text>
<rect x="1280" y="808" width="250" height="104" rx="16" fill="#f5d0fe" stroke="#c026d3" stroke-width="2"/>
<text x="1405.0" y="850.0" text-anchor="middle" dominant-baseline="middle" class="title" font-size="16">FFmpeg</text>
<text x="1405.0" y="869.0" text-anchor="middle" dominant-baseline="middle" class="sub" font-size="12">영상 + TTS 합치기</text>
<rect x="1600" y="820" width="230" height="82" rx="16" fill="#fae8ff" stroke="#c026d3" stroke-width="2"/>
<text x="1715.0" y="851.0" text-anchor="middle" dominant-baseline="middle" class="title" font-size="16">voiced MP4</text>
<text x="1715.0" y="870.0" text-anchor="middle" dominant-baseline="middle" class="sub" font-size="12">음성 포함 영상</text>
<polygon points="935.0,1010 1040,1072.5 935.0,1135 830,1072.5" fill="#fff7ed" stroke="#f97316" stroke-width="2"/>
<text x="935.0" y="1063.5" text-anchor="middle" dominant-baseline="middle" class="title" font-size="14">PERSO</text>
<text x="935.0" y="1080.5" text-anchor="middle" dominant-baseline="middle" class="sub" font-size="11">다국어 더빙?</text>
<rect x="1110" y="1018" width="260" height="108" rx="16" fill="#ede9fe" stroke="#7c3aed" stroke-width="2"/>
<text x="1240.0" y="1062.0" text-anchor="middle" dominant-baseline="middle" class="title" font-size="16">PERSO API</text>
<text x="1240.0" y="1081.0" text-anchor="middle" dominant-baseline="middle" class="sub" font-size="12">다국어 더빙 / 자막</text>
<rect x="1450" y="1018" width="230" height="92" rx="16" fill="#ede9fe" stroke="#7c3aed" stroke-width="2"/>
<text x="1565.0" y="1054.0" text-anchor="middle" dominant-baseline="middle" class="title" font-size="16">dubbed MP4</text>
<text x="1565.0" y="1073.0" text-anchor="middle" dominant-baseline="middle" class="sub" font-size="12">더빙 결과</text>
<rect x="1110" y="1180" width="260" height="92" rx="16" fill="#fae8ff" stroke="#c026d3" stroke-width="2"/>
<text x="1240.0" y="1216.0" text-anchor="middle" dominant-baseline="middle" class="title" font-size="16">최종 MP4</text>
<text x="1240.0" y="1235.0" text-anchor="middle" dominant-baseline="middle" class="sub" font-size="12">재생 / 다운로드</text>
<rect x="1450" y="1180" width="230" height="92" rx="26" fill="#ecfdf5" stroke="#059669" stroke-width="2"/>
<text x="1565.0" y="1216.0" text-anchor="middle" dominant-baseline="middle" class="title" font-size="16">File Storage</text>
<text x="1565.0" y="1235.0" text-anchor="middle" dominant-baseline="middle" class="sub" font-size="12">uploads/videos/*.mp4</text>
<rect x="350" y="1185" width="230" height="82" rx="16" fill="#fef9c3" stroke="#ca8a04" stroke-width="2"/>
<text x="465.0" y="1216.0" text-anchor="middle" dominant-baseline="middle" class="title" font-size="16">미션 추천</text>
<text x="465.0" y="1235.0" text-anchor="middle" dominant-baseline="middle" class="sub" font-size="12">완료 체크</text>
<rect x="660" y="1185" width="260" height="82" rx="16" fill="#fef08a" stroke="#ca8a04" stroke-width="2"/>
<text x="790.0" y="1216.0" text-anchor="middle" dominant-baseline="middle" class="title" font-size="16">Gemini + 규칙 풀</text>
<text x="790.0" y="1235.0" text-anchor="middle" dominant-baseline="middle" class="sub" font-size="12">일상 복귀 미션</text>
<rect x="350" y="1340" width="230" height="82" rx="16" fill="#e2e8f0" stroke="#475569" stroke-width="2"/>
<text x="465.0" y="1371.0" text-anchor="middle" dominant-baseline="middle" class="title" font-size="16">타임라인 저장</text>
<text x="465.0" y="1390.0" text-anchor="middle" dominant-baseline="middle" class="sub" font-size="12">기록 누적</text>
<rect x="660" y="1340" width="260" height="82" rx="16" fill="#e2e8f0" stroke="#475569" stroke-width="2"/>
<text x="790.0" y="1371.0" text-anchor="middle" dominant-baseline="middle" class="title" font-size="16">리포트</text>
<text x="790.0" y="1390.0" text-anchor="middle" dominant-baseline="middle" class="sub" font-size="12">감정 추이 / 완료율</text>
<rect x="1010" y="1340" width="270" height="82" rx="16" fill="#ffffff" stroke="#334155" stroke-width="2"/>
<text x="1145.0" y="1371.0" text-anchor="middle" dominant-baseline="middle" class="title" font-size="16">사용자 결과</text>
<text x="1145.0" y="1390.0" text-anchor="middle" dominant-baseline="middle" class="sub" font-size="12">타임라인·리포트·다운로드</text>
<line x1="280" y1="166.0" x2="350" y2="166.0" stroke="#475569" stroke-width="2.2" marker-end="url(#arrow)" />
<line x1="580" y1="166.0" x2="650" y2="166.0" stroke="#475569" stroke-width="2.2" marker-end="url(#arrow)" />
<line x1="880" y1="166.0" x2="950" y2="166.0" stroke="#475569" stroke-width="2.2" marker-end="url(#arrow)" />
<line x1="1180" y1="166.0" x2="1260" y2="166.0" stroke="#475569" stroke-width="2.2" marker-end="url(#arrow)" />
<line x1="1510" y1="166.0" x2="1600" y2="166.0" stroke="#475569" stroke-width="2.2" marker-end="url(#arrow)" />
<polyline points="1385.0,207 1385,250 465,250 465.0,300" fill="none" stroke="#475569" stroke-width="2.2" marker-end="url(#arrow)" />
<rect x="423" y="237" width="84" height="22" rx="11" fill="#ffffff" opacity="0.92"/>
<text x="465" y="251" text-anchor="middle" dominant-baseline="middle" class="label">다음 단계</text>
<line x1="580" y1="341.0" x2="660" y2="340.0" stroke="#475569" stroke-width="2.2" marker-end="url(#arrow)" />
<line x1="920" y1="340.0" x2="1010" y2="341.0" stroke="#475569" stroke-width="2.2" marker-end="url(#arrow)" />
<line x1="1200" y1="341.0" x2="1280" y2="337.0" stroke="#475569" stroke-width="2.2" marker-end="url(#arrow)" />
<rect x="1198.0" y="326.0" width="84" height="22" rx="11" fill="#ffffff" opacity="0.92"/>
<text x="1240.0" y="340.0" text-anchor="middle" dominant-baseline="middle" class="label">Yes</text>
<polyline points="1405.0,389 1405,570 465,570 465.0,1340" fill="none" stroke="#dc2626" stroke-width="2.2" marker-end="url(#arrow)" stroke-dasharray="6 6"/>
<rect x="423" y="557" width="84" height="22" rx="11" fill="#ffffff" opacity="0.92"/>
<text x="465" y="571" text-anchor="middle" dominant-baseline="middle" class="label">안전 기록</text>
<polyline points="1105.0,400 1105,425 1280,486.0" fill="none" stroke="#475569" stroke-width="2.2" marker-end="url(#arrow)" />
<rect x="1063" y="412" width="84" height="22" rx="11" fill="#ffffff" opacity="0.92"/>
<text x="1105" y="426" text-anchor="middle" dominant-baseline="middle" class="label">No</text>
<line x1="1280" y1="486.0" x2="1210" y2="496.0" stroke="#475569" stroke-width="2.2" marker-end="url(#arrow)" />
<line x1="980" y1="496.0" x2="920" y2="496.0" stroke="#475569" stroke-width="2.2" marker-end="url(#arrow)" />
<line x1="660" y1="496.0" x2="580" y2="496.0" stroke="#475569" stroke-width="2.2" marker-end="url(#arrow)" />
<polyline points="790.0,537 790,585 465,585 465.0,635" fill="none" stroke="#475569" stroke-width="2.2" marker-end="url(#arrow)" />
<rect x="423" y="572" width="84" height="22" rx="11" fill="#ffffff" opacity="0.92"/>
<text x="465" y="586" text-anchor="middle" dominant-baseline="middle" class="label">낭독 요청</text>
<polyline points="790.0,537 790,1148 465,1148 465.0,1185" fill="none" stroke="#475569" stroke-width="2.2" marker-end="url(#arrow)" />
<rect x="423" y="1135" width="84" height="22" rx="11" fill="#ffffff" opacity="0.92"/>
<text x="465" y="1149" text-anchor="middle" dominant-baseline="middle" class="label">미션 추천</text>
<line x1="580" y1="676.0" x2="660" y2="676.0" stroke="#475569" stroke-width="2.2" marker-end="url(#arrow)" />
<line x1="920" y1="676.0" x2="980" y2="676.0" stroke="#475569" stroke-width="2.2" marker-end="url(#arrow)" />
<line x1="1210" y1="676.0" x2="1280" y2="676.0" stroke="#475569" stroke-width="2.2" marker-end="url(#arrow)" />
<polyline points="1405.0,717 1405,765 1405,790 1405.0,808" fill="none" stroke="#475569" stroke-width="2.2" marker-end="url(#arrow)" />
<rect x="1363" y="777" width="84" height="22" rx="11" fill="#ffffff" opacity="0.92"/>
<text x="1405" y="791" text-anchor="middle" dominant-baseline="middle" class="label">audio</text>
<polyline points="1385.0,207 1385,770 465,770 465.0,820" fill="none" stroke="#475569" stroke-width="2.2" marker-end="url(#arrow)" stroke-dasharray="6 6"/>
<rect x="423" y="757" width="84" height="22" rx="11" fill="#ffffff" opacity="0.92"/>
<text x="465" y="771" text-anchor="middle" dominant-baseline="middle" class="label">사진 선택</text>
<line x1="580" y1="861.0" x2="660" y2="861.0" stroke="#475569" stroke-width="2.2" marker-end="url(#arrow)" />
<line x1="920" y1="861.0" x2="980" y2="861.0" stroke="#475569" stroke-width="2.2" marker-end="url(#arrow)" />
<line x1="1210" y1="861.0" x2="1280" y2="860.0" stroke="#475569" stroke-width="2.2" marker-end="url(#arrow)" />
<line x1="1530" y1="860.0" x2="1600" y2="861.0" stroke="#475569" stroke-width="2.2" marker-end="url(#arrow)" />
<polyline points="1715.0,902 1715,970 935,970 935.0,1010" fill="none" stroke="#475569" stroke-width="2.2" marker-end="url(#arrow)" />
<line x1="1040" y1="1072.5" x2="1110" y2="1072.0" stroke="#475569" stroke-width="2.2" marker-end="url(#arrow)" />
<rect x="1033.0" y="1059.25" width="84" height="22" rx="11" fill="#ffffff" opacity="0.92"/>
<text x="1075.0" y="1073.25" text-anchor="middle" dominant-baseline="middle" class="label">Yes</text>
<line x1="1370" y1="1072.0" x2="1450" y2="1064.0" stroke="#475569" stroke-width="2.2" marker-end="url(#arrow)" />
<polyline points="1565.0,1110 1565,1160 1240,1160 1240.0,1180" fill="none" stroke="#475569" stroke-width="2.2" marker-end="url(#arrow)" />
<polyline points="935.0,1135 935,1160 1110,1226.0" fill="none" stroke="#475569" stroke-width="2.2" marker-end="url(#arrow)" />
<rect x="893" y="1147" width="84" height="22" rx="11" fill="#ffffff" opacity="0.92"/>
<text x="935" y="1161" text-anchor="middle" dominant-baseline="middle" class="label">No</text>
<line x1="1370" y1="1226.0" x2="1450" y2="1226.0" stroke="#475569" stroke-width="2.2" marker-end="url(#arrow)" />
<line x1="580" y1="1226.0" x2="660" y2="1226.0" stroke="#475569" stroke-width="2.2" marker-end="url(#arrow)" />
<polyline points="790.0,1267 790,1300 465,1300 465.0,1340" fill="none" stroke="#475569" stroke-width="2.2" marker-end="url(#arrow)" />
<line x1="580" y1="1381.0" x2="660" y2="1381.0" stroke="#475569" stroke-width="2.2" marker-end="url(#arrow)" />
<line x1="920" y1="1381.0" x2="1010" y2="1381.0" stroke="#475569" stroke-width="2.2" marker-end="url(#arrow)" />
<polyline points="1145.0,1340 1145,1305 1565,1305 1565.0,1272" fill="none" stroke="#475569" stroke-width="2.2" marker-end="url(#arrow)" stroke-dasharray="6 6"/>
<rect x="1523" y="1292" width="84" height="22" rx="11" fill="#ffffff" opacity="0.92"/>
<text x="1565" y="1306" text-anchor="middle" dominant-baseline="middle" class="label">MP4</text>
<polyline points="1145.0,1340 1145,1290 1405,1290 1405.0,717" fill="none" stroke="#475569" stroke-width="2.2" marker-end="url(#arrow)" stroke-dasharray="6 6"/>
<rect x="1363" y="1277" width="84" height="22" rx="11" fill="#ffffff" opacity="0.92"/>
<text x="1405" y="1291" text-anchor="middle" dominant-baseline="middle" class="label">MP3</text>

<rect x="70" y="1440" width="1780" height="28" rx="14" fill="#ffffff" opacity="0.92"/>
<text x="960" y="1459" text-anchor="middle" dominant-baseline="middle" class="caption">
PERSO는 필수 코어가 아니라 선택형 멀티모달 후처리 단계로 배치하여, 윤리 경계와 시연 안정성을 함께 확보한다.
</text>

</svg>