<svg xmlns="http://www.w3.org/2000/svg" width="1000" height="700" viewBox="0 0 1000 700">
<defs>
  <marker id="arrow" viewBox="0 0 10 10" refX="8.8" refY="5" markerWidth="7" markerHeight="7" orient="auto">
    <path d="M 0 0 L 10 5 L 0 10 z" fill="#64748b"/>
  </marker>
  <style>
    text { font-family: "Noto Sans KR", "Noto Sans CJK KR", "Malgun Gothic", Arial, sans-serif; }
    .title { font-weight: 900; fill: #6d28d9; }
    .small { fill: #64748b; }
    .box-title { font-weight: 800; fill: #111827; }
    .box-sub { fill: #475569; }
    .group-label { font-weight: 900; fill: #5b21b6; }
    .label { font-size: 11px; font-weight: 800; fill: #334155; }
  </style>
</defs>
<rect width="100%" height="100%" fill="#faf5ff"/>
<text x="30" y="40" class="title" font-size="26">레인보우 브릿지 — 시스템 구성도</text>
<text x="30" y="62" class="small" font-size="12">발표용 단순 구조도 · 연결선은 핵심 흐름만 표시</text>

<rect x="35" y="92" width="165" height="205" rx="24" fill="#ede9fe" stroke="#c4b5fd" stroke-width="1.3"/>
<text x="53" y="123" class="group-label" font-size="17">사용자 레이어</text>
<rect x="235" y="92" width="190" height="205" rx="24" fill="#ddd6fe" stroke="#c4b5fd" stroke-width="1.3"/>
<text x="253" y="123" class="group-label" font-size="17">프론트엔드</text>
<rect x="460" y="92" width="285" height="500" rx="24" fill="#f5f3ff" stroke="#c4b5fd" stroke-width="1.3"/>
<text x="478" y="123" class="group-label" font-size="17">NCP 클라우드 서버</text>
<rect x="780" y="92" width="185" height="500" rx="24" fill="#eef2ff" stroke="#c4b5fd" stroke-width="1.3"/>
<text x="798" y="123" class="group-label" font-size="17">외부 API</text>
<rect x="35" y="328" width="390" height="264" rx="24" fill="#ecfdf5" stroke="#99f6e4" stroke-width="1.3"/>
<text x="53" y="359" class="group-label" font-size="17">AI / 멀티모달 GPU 서버</text>
<rect x="62" y="165" width="110" height="58" rx="18" fill="#fff" stroke="#7c3aed" stroke-width="2"/>
<text x="117.0" y="184.8" text-anchor="middle" dominant-baseline="middle" class="box-title" font-size="15">보호자</text>
<text x="117.0" y="201.0" text-anchor="middle" dominant-baseline="middle" class="box-sub" font-size="11">웹 / 모바일</text>
<rect x="260" y="158" width="140" height="72" rx="18" fill="#fff" stroke="#7c3aed" stroke-width="2"/>
<text x="330.0" y="175.6" text-anchor="middle" dominant-baseline="middle" class="box-title" font-size="15">React</text>
<text x="330.0" y="191.79999999999998" text-anchor="middle" dominant-baseline="middle" class="box-sub" font-size="11">Vite + Tailwind</text>
<text x="330.0" y="208.0" text-anchor="middle" dominant-baseline="middle" class="box-sub" font-size="11">HTTPS 도메인</text>
<rect x="505" y="130" width="195" height="62" rx="18" fill="#fff" stroke="#7c3aed" stroke-width="2"/>
<text x="602.5" y="142.6" text-anchor="middle" dominant-baseline="middle" class="box-title" font-size="15">nginx</text>
<text x="602.5" y="158.79999999999998" text-anchor="middle" dominant-baseline="middle" class="box-sub" font-size="11">HTTPS 443 · Reverse</text>
<text x="602.5" y="175.0" text-anchor="middle" dominant-baseline="middle" class="box-sub" font-size="11">Proxy</text>
<rect x="505" y="225" width="195" height="62" rx="18" fill="#fff" stroke="#7c3aed" stroke-width="2"/>
<text x="602.5" y="246.8" text-anchor="middle" dominant-baseline="middle" class="box-title" font-size="15">FastAPI Backend</text>
<text x="602.5" y="263.0" text-anchor="middle" dominant-baseline="middle" class="box-sub" font-size="11">API 서버 · 8000</text>
<rect x="490" y="330" width="230" height="180" rx="20" fill="#ffffff" stroke="#c4b5fd" stroke-width="1.6"/>
<text x="605" y="357" text-anchor="middle" font-size="14" font-weight="900" fill="#5b21b6">내부 저장소</text>
<rect x="510" y="375" width="85" height="48" rx="18" fill="#f8fafc" stroke="#7c3aed" stroke-width="2"/>
<text x="552.5" y="389.8" text-anchor="middle" dominant-baseline="middle" class="box-title" font-size="13">SQLite</text>
<text x="552.5" y="406.0" text-anchor="middle" dominant-baseline="middle" class="box-sub" font-size="10">users</text>
<rect x="615" y="375" width="85" height="48" rx="18" fill="#f8fafc" stroke="#7c3aed" stroke-width="2"/>
<text x="657.5" y="389.8" text-anchor="middle" dominant-baseline="middle" class="box-title" font-size="13">MongoDB</text>
<text x="657.5" y="406.0" text-anchor="middle" dominant-baseline="middle" class="box-sub" font-size="10">service</text>
<rect x="510" y="442" width="190" height="48" rx="18" fill="#f8fafc" stroke="#7c3aed" stroke-width="2"/>
<text x="605.0" y="456.8" text-anchor="middle" dominant-baseline="middle" class="box-title" font-size="13">File Storage</text>
<text x="605.0" y="473.0" text-anchor="middle" dominant-baseline="middle" class="box-sub" font-size="10">mp3 · image · mp4</text>
<rect x="505" y="535" width="195" height="42" rx="16" fill="#fff" stroke="#7c3aed" stroke-width="2"/>
<text x="602.5" y="546.8" text-anchor="middle" dominant-baseline="middle" class="box-title" font-size="13">Docker Compose</text>
<text x="602.5" y="563.0" text-anchor="middle" dominant-baseline="middle" class="box-sub" font-size="10">Backend + MongoDB 컨테이너</text>
<rect x="805" y="130" width="135" height="52" rx="18" fill="#fff" stroke="#7c3aed" stroke-width="2"/>
<text x="872.5" y="146.8" text-anchor="middle" dominant-baseline="middle" class="box-title" font-size="15">Gemini API</text>
<text x="872.5" y="163.0" text-anchor="middle" dominant-baseline="middle" class="box-sub" font-size="11">추모 메시지 / 미션</text>
<rect x="805" y="207" width="135" height="52" rx="18" fill="#fff" stroke="#14b8a6" stroke-width="2"/>
<text x="872.5" y="223.8" text-anchor="middle" dominant-baseline="middle" class="box-title" font-size="15">Google TTS</text>
<text x="872.5" y="240.0" text-anchor="middle" dominant-baseline="middle" class="box-sub" font-size="11">음성 합성</text>
<rect x="805" y="284" width="135" height="52" rx="18" fill="#fff" stroke="#7c3aed" stroke-width="2"/>
<text x="872.5" y="300.8" text-anchor="middle" dominant-baseline="middle" class="box-title" font-size="15">PERSO API</text>
<text x="872.5" y="317.0" text-anchor="middle" dominant-baseline="middle" class="box-sub" font-size="11">더빙 / 자막</text>
<rect x="805" y="361" width="135" height="52" rx="18" fill="#fff" stroke="#7c3aed" stroke-width="2"/>
<text x="872.5" y="377.8" text-anchor="middle" dominant-baseline="middle" class="box-title" font-size="15">카카오맵 API</text>
<text x="872.5" y="394.0" text-anchor="middle" dominant-baseline="middle" class="box-sub" font-size="11">동물병원 검색</text>
<rect x="75" y="390" width="125" height="58" rx="20" fill="#fff" stroke="#10b981" stroke-width="2"/>
<text x="137.5" y="409.8" text-anchor="middle" dominant-baseline="middle" class="box-title" font-size="15">ChromaDB</text>
<text x="137.5" y="426.0" text-anchor="middle" dominant-baseline="middle" class="box-sub" font-size="11">RAG 벡터DB</text>
<rect x="250" y="390" width="125" height="58" rx="20" fill="#fff" stroke="#10b981" stroke-width="2"/>
<text x="312.5" y="409.8" text-anchor="middle" dominant-baseline="middle" class="box-title" font-size="15">LivePortrait</text>
<text x="312.5" y="426.0" text-anchor="middle" dominant-baseline="middle" class="box-sub" font-size="11">사진 → 영상</text>
<rect x="75" y="488" width="300" height="48" rx="18" fill="#fff" stroke="#10b981" stroke-width="2"/>
<text x="225.0" y="502.8" text-anchor="middle" dominant-baseline="middle" class="box-title" font-size="14">GPU 서버</text>
<text x="225.0" y="519.0" text-anchor="middle" dominant-baseline="middle" class="box-sub" font-size="10.5">RAG 검색과 사진 기반 영상 생성 처리</text>
<rect x="35" y="622" width="930" height="42" rx="21" fill="#ffffff" stroke="#e2e8f0" stroke-width="1.2"/>
<text x="210" y="648" text-anchor="middle" font-size="12" font-weight="900" fill="#334155">GitHub Actions CI/CD</text>
<text x="520" y="648" text-anchor="middle" font-size="11" fill="#64748b">PR 검사 → dev merge → NCP 자동 배포 → systemd restart</text>
<line x1="172" y1="194" x2="260" y2="194" stroke="#64748b" stroke-width="2.2" marker-end="url(#arrow)" />
<line x1="400" y1="194" x2="505" y2="161" stroke="#64748b" stroke-width="2.2" marker-end="url(#arrow)" />
<rect x="408.5" y="166.5" width="88" height="20" rx="10" fill="#ffffff" opacity="0.98"/>
<text x="452.5" y="178.5" text-anchor="middle" dominant-baseline="middle" class="label">HTTPS</text>
<line x1="603" y1="192" x2="603" y2="225" stroke="#64748b" stroke-width="2.2" marker-end="url(#arrow)" />
<line x1="603" y1="287" x2="603" y2="330" stroke="#64748b" stroke-width="2.2" marker-end="url(#arrow)" />
<rect x="559.0" y="297.5" width="88" height="20" rx="10" fill="#ffffff" opacity="0.98"/>
<text x="603.0" y="309.5" text-anchor="middle" dominant-baseline="middle" class="label">DB/File</text>
<path d="M 700 256 L 762 256 L 762 256 L 805 256" fill="none" stroke="#64748b" stroke-width="2.2" marker-end="url(#arrow)" stroke-dasharray="6 6"/>
<rect x="714" y="245" width="96" height="20" rx="10" fill="#ffffff" opacity="0.98"/>
<text x="762" y="257" text-anchor="middle" dominant-baseline="middle" class="label">API 호출</text>
<text x="873" y="461" text-anchor="middle" font-size="10.5" fill="#64748b">외부 API는 FastAPI에서 호출</text>
<path d="M 505 256 L 450 256 L 450 419 L 375 419" fill="none" stroke="#10b981" stroke-width="2.2" marker-end="url(#arrow)" stroke-dasharray="6 6"/>
<rect x="402" y="245" width="96" height="20" rx="10" fill="#ffffff" opacity="0.98"/>
<text x="450" y="257" text-anchor="middle" dominant-baseline="middle" class="label">영상/RAG</text>
<path d="M 603 622 L 603 577" fill="none" stroke="#64748b" stroke-width="2.2" marker-end="url(#arrow)" stroke-dasharray="6 6"/>
<rect x="555" y="566" width="96" height="20" rx="10" fill="#ffffff" opacity="0.98"/>
<text x="603" y="578" text-anchor="middle" dominant-baseline="middle" class="label">deploy</text>
<rect x="480" y="596" width="465" height="20" rx="10" fill="#ffffff" opacity="0.95"/>
<text x="712" y="610" text-anchor="middle" font-size="10.5" fill="#64748b">세부 DB/API 연결은 코드·API 문서에서 설명하고, 발표 자료는 핵심 흐름만 표시</text>
</svg>